<?xml version="1.0" encoding="utf-8"?>
<!-- Generator: Adobe Illustrator 22.1.0, SVG Export Plug-In . SVG Version: 6.00 Build 0)  -->
<svg version="1.1" id="Layer_1" xmlns="http://www.w3.org/2000/svg" xmlns:xlink="http://www.w3.org/1999/xlink" x="0px" y="0px"
	 viewBox="0 0 841.9 595.3" style="enable-background:new 0 0 841.9 595.3;" xml:space="preserve">
<style type="text/css">
	.st0{clip-path:url(#SVGID_2_);}
	.st1{fill:#3B5EFA;}
	.st2{fill:#4E6FFF;}
	.st3{fill:#EAEAED;}
	.st4{opacity:0.53;fill:url(#Path_253_2_);enable-background:new    ;}
	.st5{fill:#274BEC;}
	.st6{fill:#46A3DB;}
	.st7{opacity:0.1;fill:#32324B;enable-background:new    ;}
	.st8{fill:#F6AD84;}
	.st9{fill:#F18868;}
	.st10{fill:#007950;}
	.st11{fill:#060707;}
	.st12{fill:#DD9D05;}
	.st13{fill:#BE8010;}
	.st14{fill:#FFFFFF;}
	.st15{fill:#2D2D2D;}
	.st16{fill:#029763;}
	.st17{fill:#E2E1E1;}
	.st18{fill:#32324B;}
	.st19{fill:#111729;}
	.st20{fill:none;stroke:#FFFFFF;stroke-width:0.601;stroke-linecap:round;stroke-linejoin:round;}
	.st21{fill:none;stroke:#FFFFFF;stroke-width:0.204;stroke-miterlimit:10;}
	.st22{fill:none;stroke:#FFFFFF;stroke-linecap:round;stroke-linejoin:round;stroke-dasharray:4,4;}
	.st23{fill:#68A2D8;}
	.st24{fill:#EA80B2;}
	.st25{fill:#E1386C;}
	.st26{fill:#F5A27A;}
</style>
<g id="Layer_1_2_">
	<g id="Layer_2_1_">
		<g>
			<g>
				<g>
					<defs>
						<rect id="SVGID_1_" x="282.2" y="7.4" width="559.3" height="516.7"/>
					</defs>
					<clipPath id="SVGID_2_">
						<use xlink:href="#SVGID_1_"  style="overflow:visible;"/>
					</clipPath>
					<g transform="matrix(1 0 0 1 -1.907349e-06 0)" class="st0">
						
							<image style="overflow:visible;enable-background:new    ;" width="4205" height="3481" xlink:href="Illustration_bg_2019-11-13/Illustration_bg@2x.png"  transform="matrix(0.3002 0 0 0.3002 20.7913 -462.3957)">
						</image>
					</g>
				</g>
			</g>
		</g>
		<g>
			<g id="Illustration_bg_1_" transform="translate(-478.741 561.428)">
				<path id="Path_85_1_" class="st1" d="M605-809.2c32.6-105.9,214.1-131.7,263.2-88.9c69.6,60.6,51.2,103.4,185.6,54.5
					c45.6-16.6,101.1-17.1,145.8,7.6c32.1,17.8,56.3,48.2,62.4,81.3c3.4,18.4,1.3,37,2.7,55.6c1.4,18.5,7,38.2,22.3,51.3
					c14.7,12.6,35.8,16.7,55.5,17.2c47.5,1.4,93.3-14.9,141-9.7c40.2,4.4,84.5,23.4,110.2,53.2c33.7,39,35,91.8,31.9,137.6
					c-3.6,53.7-19.7,105.9-44.8,153.6c-32.2,61.1-79,114.9-133.4,160.9c-48.5,40.9,4.6,50.7-57.9,72
					c-98.9,33.7-361.9,63.6-415.1-44.3c-64.1-129.9,84.3-184.5-50.9-211.8c-80.9-16.4-255.1-132.1-172.7-265S558.1-656.7,605-809.2
					L605-809.2z"/>
				<path id="Path_90_1_" class="st2" d="M614.9-802.1c41.6-92.1,354.7-137.9,398.8-92c62.4,65,40.5,101.5,176.5,75.5
					c46.2-8.8,100.5-1.6,141.9,27.2c29.8,20.7,50.6,51.8,53.5,82.9c1.6,17.3,38.3,15.8,37.9,32.9s-8.8,51.9,4.9,65.9
					c13.2,13.5,5.2,22.3,24.4,25.6c46.3,7.9,92.6-0.7,138.8,10.8c38.9,9.6,80.5,33.1,102.9,63.9c29.3,40.3,25.7,88.7,18.5,130
					c-8.5,48.5-29,93.9-58,133.9c-37.1,51.3-87.9,93.9-145.4,128.2c-51.2,30.6-108.5,55-171.7,65.7c-99.9,17-251.5-0.4-293.5-106.2
					c-50.6-127.4,99.5-156.6-30.2-200.3c-77.6-26.2-188.6-108.5-95.7-218.3S554.9-669.4,614.9-802.1z"/>
			</g>
		</g>
	</g>
	<g id="Layer_1_1_">
		<g>
			<g id="Illustration_1_" transform="translate(-1023.91 -343.273)">
				<ellipse id="Ellipse_20_1_" class="st3" cx="1408.5" cy="683.9" rx="20" ry="20"/>
				
					<linearGradient id="Path_253_2_" gradientUnits="userSpaceOnUse" x1="3069.6296" y1="938.8065" x2="3069.6375" y2="939.6293" gradientTransform="matrix(20.9162 198.3381 214.9492 -22.6679 -264501.8438 -586978.25)">
					<stop  offset="0" style="stop-color:#FFFFFF;stop-opacity:0"/>
					<stop  offset="1" style="stop-color:#F6EBD5"/>
				</linearGradient>
				<path id="Path_253_1_" class="st4" d="M1628.8,570.6l-109.2-71.9l-32,71.9l117.9,49.4L1628.8,570.6z"/>
				<g id="Group_179_1_" transform="translate(1323.805 5966.908)">
					<path id="Path_244_1_" class="st5" d="M443.8-5242.8c-18-3.8-23.7,9.5-21.1,19.1c3.7,13.5,11.3,14.4-5.9,28
						c-12.7,10.1-14.1,28.6,2,36.2c22.6,10.7,0.8,22.7-3.1,34.1c-8.1,23.5,9.3,27.4,37.5,36c29,8.8,49.4,1.2,67.1-18.5
						c13.1-14.5,20.3-30.1,10.3-42.7c-14.3-18-33.3-3-27.3-22.5c3.6-11.7,2.1-32.6-23.6-31.9
						C454.3-5204.3,469.7-5237.4,443.8-5242.8z"/>
					<path id="Path_245_1_" class="st6" d="M490.9-5065.8l-0.3-6.5l-0.5-13c-0.3-4.3-0.9-8.6-1.3-12.9l-0.7-6.5
						c-0.3-2.1-0.7-4.3-1-6.4c-0.7-4.3-1.4-8.5-2.2-12.8c-3.6-16.9-8.8-33.5-15.5-49.5c-6.8-15.9-15-31.3-25.8-44.9l-0.4,0.3
						c1.2,1.8,2.3,3.6,3.4,5.5c1.1,1.8,2.2,3.7,3.3,5.6c1.1,1.9,2.1,3.8,3,5.7c1,1.9,2,3.8,2.9,5.8c1.8,3.9,3.7,7.7,5.3,11.7
						c0.8,2,1.7,3.9,2.5,5.9l2.3,6l2.3,6l2,6.1l2,6.1c0.7,2,1.2,4.1,1.8,6.1c0.5,2.1,1.2,4.1,1.8,6.1l0.9,3.1c0.3,1,0.5,2.1,0.7,3.1
						l2.9,12.4c0.8,4.2,1.5,8.4,2.3,12.6c0.4,2.1,0.8,4.2,1.1,6.3c0.2,2.1,0.5,4.2,0.8,6.3c0.5,4.2,1.2,8.5,1.6,12.7
						c0.3,4.3,0.6,8.5,1,12.8l0.5,6.4"/>
					<path id="Path_246_1_" class="st6" d="M463.1-5155.6c-2.4-1.9-5.1-3.4-7.9-4.6c-1.4-0.6-2.8-1.1-4.2-1.6
						c-1.4-0.4-2.9-0.8-4.3-1.1c-3-0.6-6-1-9-1c-3.1-0.1-6.2,0.4-9.1,1.4v0.3c5.9,0.2,11.7,1,17.4,2.4c5.8,1.2,11.4,2.7,17,4.5
						L463.1-5155.6z"/>
					<path id="Path_247_1_" class="st6" d="M454.8-5185.7c-1.7-2-3.7-3.7-5.9-5c-1.1-0.7-2.2-1.3-3.3-1.8c-1.1-0.5-2.3-1-3.5-1.5
						c-2.4-0.8-4.9-1.4-7.4-1.7c-2.6-0.4-5.2-0.2-7.8,0.5v0.3c4.8,0.9,9.5,2.2,14.1,4c4.6,1.6,9.1,3.5,13.6,5.6L454.8-5185.7z"/>
					<path id="Path_248_1_" class="st6" d="M481.8-5159.2c1-1.4,1.8-2.9,2.5-4.4c0.6-1.4,1.2-2.7,1.7-4.1c0.2-0.7,0.5-1.3,0.7-2
						l0.4-1c0.2-0.3,0.3-0.6,0.4-0.9c0.6-1.4,1.4-2.8,2.3-4.1l-0.1-0.3c-1.6,0.6-2.9,1.6-4,2.9c-1,1.3-1.8,2.7-2.4,4.3
						c-1.1,3.1-1.7,6.3-1.8,9.6H481.8z"/>
					<path id="Path_249_1_" class="st6" d="M474.7-5120.8c-3.2-2.5-6.7-4.6-10.5-6.1c-1.8-0.8-3.7-1.4-5.6-2.1
						c-1.9-0.6-3.8-1-5.8-1.5c-3.9-0.8-7.9-1.3-11.9-1.3c-4.1-0.1-8.2,0.5-12.1,1.8v0.4c7.8,0.2,15.5,1.5,23.1,3.1
						s15.2,3.6,22.6,5.9L474.7-5120.8z"/>
					<path id="Path_251_1_" class="st6" d="M468.1-5189.9c0.5-1.2,0.8-2.5,1.1-3.8c0.2-1.2,0.4-2.3,0.5-3.4s0.2-2.2,0.4-3.2
						c0.2-1.2,0.5-2.3,0.9-3.4l-0.1-0.2c-1.1,0.7-1.9,1.7-2.4,2.9c-0.5,1.2-0.8,2.4-1,3.7c-0.2,2.5-0.1,5,0.4,7.5L468.1-5189.9z"/>
					<path id="Path_250_1_" class="st6" d="M497-5124.9c2.6-3.3,4.1-7.6,5.6-11.5c1.5-4,3.4-7.7,5.7-11.2c0.6-0.9,1.3-1.8,2-2.7
						c0.4-0.5,0.8-1.4,0-0.9c-0.5,0.3-0.9,0.6-1.3,1c-0.7,0.6-1.5,1.3-2.2,2c-1.5,1.5-2.9,3.1-4.3,4.7c-4.1,5.3-5.7,12.1-5.8,18.7
						L497-5124.9z"/>
				</g>
				<g id="Group_180_1_" transform="translate(1023.91 757.736)">
					<path id="Path_244-2_1_" class="st1" d="M375-35.4c10.9-2.3,14.4,5.8,12.8,11.6c-2.3,8.2-6.9,8.8,3.6,17.1
						c7.7,6.1,8.6,17.4-1.2,22c-13.8,6.5-0.5,13.8,1.9,20.8c4.9,14.3-5.6,16.7-22.9,21.9c-17.7,5.4-30.1,0.7-40.9-11.3
						c-8-8.8-12.3-18.4-6.3-26c8.7-11,20.3-1.8,16.6-13.7c-2.2-7.1-1.3-19.8,14.4-19.5C368.6-12,359.2-32.1,375-35.4z"/>
					<path id="Path_245-2_1_" class="st6" d="M346.3,72.4l0.2-4l0.3-7.9c0.2-2.6,0.5-5.2,0.8-7.9l0.4-3.9c0.2-1.3,0.4-2.6,0.6-3.9
						c0.5-2.6,0.9-5.2,1.4-7.8c2.2-10.3,5.4-20.4,9.5-30.2c4.2-9.7,9.1-19.1,15.7-27.4l0.2,0.2c-0.7,1.1-1.4,2.2-2.1,3.3
						s-1.3,2.3-2,3.4s-1.3,2.3-1.8,3.5s-1.2,2.3-1.7,3.5c-1.1,2.4-2.3,4.7-3.2,7.1c-0.5,1.2-1,2.4-1.5,3.6l-1.4,3.6l-1.4,3.6
						l-1.2,3.7l-1.2,3.7c-0.4,1.2-0.7,2.5-1.1,3.7c-0.3,1.3-0.7,2.5-1.1,3.7l-0.5,1.9c-0.2,0.6-0.3,1.3-0.4,1.9l-1.7,7.6
						c-0.5,2.5-0.9,5.1-1.4,7.7c-0.2,1.3-0.5,2.5-0.7,3.8s-0.3,2.6-0.5,3.9c-0.3,2.6-0.7,5.2-1,7.7c-0.2,2.6-0.4,5.2-0.6,7.8
						l-0.3,3.9"/>
					<path id="Path_246-2_1_" class="st6" d="M363.2,17.7c1.5-1.2,3.1-2.1,4.8-2.8c0.8-0.4,1.7-0.6,2.6-0.9c0.9-0.3,1.8-0.5,2.6-0.7
						c1.8-0.4,3.6-0.6,5.5-0.6s3.8,0.2,5.5,0.8v0.2c-3.6,0.1-7.1,0.6-10.6,1.4c-3.5,0.7-7,1.6-10.4,2.7V17.7z"/>
					<path id="Path_247-2_1_" class="st6" d="M368.2-0.7c1-1.2,2.2-2.2,3.6-3c0.6-0.4,1.3-0.8,2-1.1s1.4-0.6,2.1-0.9
						c1.5-0.5,3-0.9,4.5-1.1c1.6-0.2,3.2-0.1,4.7,0.3v0.2c-2.9,0.5-5.8,1.3-8.6,2.4c-2.8,1-5.6,2.1-8.3,3.4L368.2-0.7z"/>
					<path id="Path_248-2_1_" class="st6" d="M351.8,15.5c-0.6-0.8-1.1-1.8-1.5-2.7s-0.7-1.7-1-2.5c-0.1-0.4-0.3-0.8-0.5-1.2
						l-0.2-0.6c-0.1-0.2-0.2-0.4-0.2-0.6C348,7,347.5,6.2,347,5.4l0.1-0.2c1,0.4,1.8,1,2.4,1.8s1.1,1.7,1.5,2.6
						c0.7,1.9,1,3.9,1.1,5.9H351.8z"/>
					<path id="Path_249-2_1_" class="st6" d="M356.2,38.9c1.9-1.5,4.1-2.8,6.4-3.7c1.1-0.5,2.3-0.9,3.4-1.3c1.2-0.4,2.3-0.6,3.5-0.9
						c2.4-0.5,4.8-0.8,7.3-0.8c2.5-0.1,5,0.3,7.3,1.1v0.3c-4.7,0.2-9.5,0.8-14.1,1.9c-4.6,1-9.2,2.2-13.8,3.6L356.2,38.9z"/>
					<path id="Path_251-2_1_" class="st6" d="M360.1-3.2c-0.3-0.7-0.5-1.5-0.7-2.3c-0.1-0.7-0.2-1.4-0.3-2.1c-0.1-0.7-0.1-1.3-0.2-2
						c-0.1-0.7-0.3-1.4-0.6-2.1l0.1-0.1c0.6,0.4,1.1,1.1,1.5,1.8c0.3,0.7,0.5,1.5,0.6,2.2c0.1,1.5,0.1,3.1-0.2,4.6L360.1-3.2z"/>
					<path id="Path_250-2_1_" class="st6" d="M342.6,36.4c-1.6-2-2.5-4.6-3.4-7s-2-4.7-3.5-6.9c-0.4-0.6-0.8-1.1-1.2-1.6
						c-0.2-0.3-0.5-0.8,0-0.6c0.3,0.2,0.6,0.4,0.8,0.6c0.5,0.4,0.9,0.8,1.4,1.2c0.9,0.9,1.8,1.9,2.6,2.9c2.5,3.2,3.5,7.4,3.5,11.4
						H342.6z"/>
				</g>
				<g id="Group_561_1_" transform="translate(927.636 341.75)">
					<ellipse id="Ellipse_44_1_" class="st7" cx="569.4" cy="530.6" rx="63.9" ry="9.7"/>
					<g id="Group_560_1_" transform="translate(248.979 67.25)">
						<g id="Group_559_1_">
							<g id="Group_443_1_" transform="translate(111.002 112.057)">
								<g id="Group_442_1_" transform="translate(55.563 160.715)">
									<path id="Path_21899_1_" class="st8" d="M206-11.2c2.3,0.5,4.5,1.2,6.7,2.1c3,1.4,6.6,3.1,8.4,4c2.2,1.1,0.3,3-2.8,1.7
										S214.4-5,214.4-5s10.5,7.9,12.3,11c1.6,2.8-4.4-1.3-9.5-4.3c0,0,8.8,9.4,8.3,11.5c-0.7,2.8-11.4-8.6-11.4-8.6
										s6.6,9.6,5.4,10.2c-1.4,0.7-9.4-8.2-9.4-8.2s4,7,3,7.1c-1.9,0.2-13.2-12.6-13.6-20.3C199.5-6.8,204.1-11.2,206-11.2
										L206-11.2z"/>
									<path id="Path_21900_1_" class="st9" d="M216.2-1c0,0-3.5,5-9.2,5.9C207,4.9,212.6,6.7,216.2-1z"/>
									<path id="Path_21901_1_" class="st9" d="M210-0.9c0,0-6.7-2.7-4.1-8.5C205.9-9.5,200.9-3.8,210-0.9z"/>
								</g>
								<path id="Path_21902_1_" class="st10" d="M238.3,106.3c-5.1-43.7-15-61.2-15-61.2c-8.9,36.6-2,56.5,1,66.1s30.7,44,30.7,44
									c2.1-2.7,5-4.6,7.7-5.3c0,0-8.8-15.5-11.9-21.2C247.8,122.8,238.3,106.3,238.3,106.3z"/>
							</g>
							<g id="Group_519_1_" transform="translate(29.247 277.767)">
								<g id="Group_477_1_" transform="translate(60.952 8.122)">
									<g id="Group_444_1_">
										<path id="Path_21903_1_" class="st11" d="M257,76.5l-7,84.8h-12.4c-2.9-33-7.5-62-2.3-84.8c-5.2-25.7-9.1-84-9.1-84
											c9.4-4.3,24.6-8.3,24.6-8.3C255.8,12.7,257,76.5,257,76.5z"/>
									</g>
									<g id="Group_476_1_" transform="translate(12.787 251.708)">
										<g id="Group_446_1_">
											<g id="Group_445_1_">
												<path id="Path_21904_1_" class="st12" d="M266-70.5h-40.5c-2.1,0-3.7-1.7-3.7-3.7c0-0.1,0-0.2,0-0.3l1.6-21.2
													c1.3-0.6,2.7-1,4-1.3c1.4-0.3,2.5-1.3,3-2.7c0-0.1,0.1-0.2,0.1-0.3c0.9-4.1,6.8-5.4,7.9-1.4c0.1,0.5,0.3,1,0.4,1.5
													c0,0.1,0.1,0.2,0.1,0.4c0.2,0.9,0.3,1.6,0.4,2.3l0,0c0.1,1,0.2,1.9,0.2,2.9c0.5,0.7,1.1,1.3,1.6,2
													c0.3,0.3,0.5,0.7,0.7,1c0.5,0.7,1,1.4,1.6,2c0.2,0.3,0.5,0.6,0.7,0.9c0.5,0.7,1.1,1.3,1.7,2c0.2,0.3,0.5,0.6,0.8,0.8
													c2.1,2.2,4.2,3.7,6.7,4c4.4,0.6,11.6,1.1,15,7.5c0.1,0.1,0.1,0.3,0.2,0.4c0.4,1.3-0.3,2.7-1.6,3.1
													C266.5-70.5,266.2-70.5,266-70.5z"/>
											</g>
										</g>
										<g id="Group_448_1_" transform="translate(.053 46.477)">
											<g id="Group_447_1_">
												<path id="Path_21905_1_" class="st13" d="M265.9-116.9h-40.5c-1.9,0-3.5-1.4-3.7-3.2h46.5c0.4,1.3-0.3,2.7-1.6,3.1
													C266.4-117,266.2-116.9,265.9-116.9z"/>
											</g>
										</g>
										<g id="Group_456_1_" transform="translate(21.819 17.781)">
											<g id="Group_451_1_" transform="translate(1.663)">
												<g id="Group_450_1_">
													<g id="Group_449_1_">
														<path id="Path_21906_1_" class="st14" d="M218.3-109.2c-0.5,0.7-1.4,1.5-3.3,2.3c-0.3,0.1-0.7,0.3-1.1,0.4l-0.3-1.1
															c0.4-0.1,0.7-0.3,1-0.4c2.2-0.9,2.8-1.8,3-2.2C217.8-109.8,218.1-109.5,218.3-109.2L218.3-109.2z"/>
													</g>
												</g>
											</g>
											<g id="Group_455_1_" transform="translate(0 2.88)">
												<g id="Group_454_1_">
													<g id="Group_453_1_">
														<g id="Group_452_1_">
															<circle id="Ellipse_45_1_" class="st14" cx="215.4" cy="-109.9" r="1.3"/>
														</g>
													</g>
												</g>
											</g>
										</g>
										<g id="Group_464_1_" transform="translate(26.18 22.374)">
											<g id="Group_459_1_" transform="translate(1.346)">
												<g id="Group_458_1_">
													<g id="Group_457_1_">
														<path id="Path_21907_1_" class="st14" d="M216.5-110.9c-0.8,0.8-1.7,1.4-2.8,1.7c-0.4,0.2-0.8,0.3-1.3,0.5l-0.3-1.1
															c0.4-0.1,0.8-0.3,1.2-0.4c1-0.3,1.8-0.9,2.5-1.6C216.1-111.4,216.3-111.2,216.5-110.9L216.5-110.9z"/>
													</g>
												</g>
											</g>
											<g id="Group_463_1_" transform="translate(0 2.044)">
												<g id="Group_462_1_">
													<g id="Group_461_1_">
														<g id="Group_460_1_">
															<path id="Path_21908_1_" class="st14" d="M215.1-111.2c0,0.7-0.6,1.3-1.3,1.3s-1.3-0.6-1.3-1.3
																c0-0.7,0.6-1.3,1.3-1.3S215.1-111.9,215.1-111.2L215.1-111.2z"/>
														</g>
													</g>
												</g>
											</g>
										</g>
										<g id="Group_472_1_" transform="translate(30.04 26.8)">
											<g id="Group_467_1_" transform="translate(1.323)">
												<g id="Group_466_1_">
													<g id="Group_465_1_">
														<path id="Path_21909_1_" class="st14" d="M215.1-112.5c-0.8,0.7-1.7,1.3-2.7,1.7c-0.4,0.2-0.8,0.3-1.3,0.5l-0.3-1.1
															c0.4-0.1,0.8-0.3,1.2-0.4c0.9-0.3,1.7-0.8,2.4-1.5C214.6-113,214.9-112.7,215.1-112.5L215.1-112.5z"/>
													</g>
												</g>
											</g>
											<g id="Group_471_1_" transform="translate(0 1.836)">
												<g id="Group_470_1_">
													<g id="Group_469_1_">
														<g id="Group_468_1_">
															<path id="Path_21910_1_" class="st14" d="M213.8-112.7c0,0.7-0.6,1.3-1.3,1.3s-1.3-0.6-1.3-1.3
																c0-0.7,0.6-1.3,1.3-1.3l0,0C213.2-113.9,213.8-113.4,213.8-112.7z"/>
														</g>
													</g>
												</g>
											</g>
										</g>
										<g id="Group_475_1_" transform="translate(21.411 6.579)">
											<g id="Group_474_1_">
												<g id="Group_473_1_">
													<path id="Path_21911_1_" class="st14" d="M217.9-103.9c-1.2,0-2.4,0.1-3.6,0.2v-2c1-0.4,2.1-0.5,3.2-0.5
														C217.7-105.4,217.8-104.6,217.9-103.9z"/>
												</g>
											</g>
										</g>
									</g>
								</g>
								<g id="Group_518_1_">
									<g id="Group_516_1_" transform="translate(0 14.506)">
										<g id="Group_478_1_" transform="translate(4.078)">
											<path id="Path_21912_1_" class="st15" d="M276.5-13.9c0,0-0.3,33.7-5.1,84c-3.1,27.4-6.6,61.9-10.4,84.8h-12.4l-1.7-84.8
												c0,0-2.8-52.2,3.3-88.1L276.5-13.9z"/>
										</g>
										<g id="Group_515_1_" transform="translate(0 249.056)">
											<g id="Group_481_1_">
												<g id="Group_480_1_">
													<g id="Group_479_1_">
														<path id="Path_21913_1_" class="st12" d="M275.9-77c-0.4,7.1-22.6,4.7-26.2,2.5c-1.4-0.8-1.9-2.4-2.1-4.3
															c-0.2-3.1,0.8-7,1.7-10.1c1.4-5,1.2-4.9,2.2-8.4c0,0-0.3-5.6,7-7.7c7.3-2.1,10,11.8,11.2,14.4c1.1,2.4,5.6,5.8,6,11.8
															C275.9-78.2,275.9-77.6,275.9-77z"/>
													</g>
												</g>
											</g>
											<g id="Group_484_1_" transform="translate(9.924 13.724)">
												<g id="Group_483_1_">
													<g id="Group_482_1_">
														<path id="Path_21914_1_" class="st14" d="M244.7-106.5l-0.6-0.9c0.3-0.2,6.7-4.3,12.3-1.8l-0.4,1
															C250.9-110.5,244.7-106.5,244.7-106.5z"/>
													</g>
												</g>
											</g>
											<g id="Group_487_1_" transform="translate(10.902 23.267)">
												<g id="Group_486_1_">
													<g id="Group_485_1_">
														<path id="Path_21915_1_" class="st14" d="M244.3-109.8l-0.6-0.9c0.3-0.2,6.7-4.3,12.3-1.8l-0.4,1
															C250.6-113.8,244.4-109.9,244.3-109.8L244.3-109.8z"/>
													</g>
												</g>
											</g>
											<g id="Group_490_1_" transform="translate(10.414 18.496)">
												<g id="Group_489_1_">
													<g id="Group_488_1_">
														<path id="Path_21916_1_" class="st14" d="M244.5-108.2l-0.6-0.9c0.3-0.2,6.7-4.3,12.3-1.8l-0.4,1
															C250.7-112.2,244.6-108.2,244.5-108.2z"/>
													</g>
												</g>
											</g>
											<g id="Group_493_1_" transform="translate(8.425 16.865)">
												<g id="Group_492_1_">
													<g id="Group_491_1_">
														<path id="Path_21917_1_" class="st14" d="M247-109.9c0,0.7-0.5,1.2-1.2,1.2s-1.2-0.5-1.2-1.2s0.5-1.2,1.2-1.2
															S247-110.6,247-109.9L247-109.9z"/>
													</g>
												</g>
											</g>
											<g id="Group_496_1_" transform="translate(8.524 21.387)">
												<g id="Group_495_1_">
													<g id="Group_494_1_">
														<path id="Path_21918_1_" class="st14" d="M247-111.5c0,0.7-0.5,1.2-1.2,1.2s-1.2-0.5-1.2-1.2s0.5-1.2,1.2-1.2
															S247-112.2,247-111.5L247-111.5z"/>
													</g>
												</g>
											</g>
											<g id="Group_499_1_" transform="translate(9.502 25.909)">
												<g id="Group_498_1_">
													<g id="Group_497_1_">
														<path id="Path_21919_1_" class="st14" d="M246.7-113.1c0,0.7-0.5,1.2-1.2,1.2s-1.2-0.5-1.2-1.2s0.5-1.2,1.2-1.2
															C246.1-114.3,246.7-113.8,246.7-113.1L246.7-113.1z"/>
													</g>
												</g>
											</g>
											<g id="Group_502_1_" transform="translate(27.681 23.237)">
												<g id="Group_501_1_">
													<g id="Group_500_1_">
														<path id="Path_21920_1_" class="st14" d="M240.3-112.2c0,0.7-0.5,1.2-1.2,1.2s-1.2-0.5-1.2-1.2s0.5-1.2,1.2-1.2l0,0
															C239.8-113.4,240.3-112.8,240.3-112.2z"/>
													</g>
												</g>
											</g>
											<g id="Group_505_1_" transform="translate(27.192 18.303)">
												<g id="Group_504_1_">
													<g id="Group_503_1_">
														<path id="Path_21921_1_" class="st14" d="M240.5-110.4c0,0.7-0.5,1.2-1.2,1.2s-1.2-0.5-1.2-1.2s0.5-1.2,1.2-1.2
															C239.9-111.6,240.5-111.1,240.5-110.4z"/>
													</g>
												</g>
											</g>
											<g id="Group_508_1_" transform="translate(26.702 13.368)">
												<g id="Group_507_1_">
													<g id="Group_506_1_">
														<path id="Path_21922_1_" class="st14" d="M240.6-108.7c0,0.7-0.5,1.2-1.2,1.2s-1.2-0.5-1.2-1.2s0.5-1.2,1.2-1.2l0,0
															C240.1-109.9,240.6-109.4,240.6-108.7L240.6-108.7z"/>
													</g>
												</g>
											</g>
											<g id="Group_511_1_" transform="translate(.031 40.599)">
												<g id="Group_510_1_">
													<g id="Group_509_1_">
														<path id="Path_21923_1_" class="st13" d="M275.8-117.6c-0.4,7.1-22.6,4.7-26.2,2.5c-1.4-0.8-1.9-2.4-2.1-4.3
															c2.3,1.3,6.5,3,12.6,3.1c7.6,0.1,13-1.4,15.6-3C275.9-118.8,275.9-118.2,275.8-117.6z"/>
													</g>
												</g>
											</g>
											<g id="Group_514_1_" transform="translate(12.126 3.677)">
												<g id="Group_513_1_">
													<g id="Group_512_1_">
														<path id="Path_21924_1_" class="st14" d="M249.6-106.5c-2.2-0.2-4.3,0.3-6.3,1.2l0.3,2.3c0,0,4-1.2,6.7-1
															C250.3-104.9,250.1-105.7,249.6-106.5z"/>
													</g>
												</g>
											</g>
										</g>
									</g>
									<g id="Group_517_1_" transform="translate(6.494)">
										<path id="Path_21925_1_" class="st15" d="M249.5-12.4c0,0-4.2,14.8-4.2,28.1c0,0,20.5,9,46.7-0.9
											c10.7-4.1,16.1-16,12.3-26.7c0-0.1-0.1-0.3-0.1-0.4C304.1-12.4,270.7-13.7,249.5-12.4L249.5-12.4z"/>
									</g>
								</g>
							</g>
							<g id="Group_538_1_" transform="translate(21.073 104.504)">
								<g id="Group_523_1_">
									<g id="Group_522_1_">
										<g id="Group_521_1_">
											<g id="Group_520_1_">
												<path id="Path_21926_1_" class="st16" d="M326.2,169.5c-4.3,2-8.8,3.8-13.4,5.2c-1.2,0.4-2.5,0.7-3.7,1.1
													c-6.6,1.8-13.4,2.8-20.3,3c-11.4,0.2-22.9-2.4-33.6-9l7.2-43.1l-12-70l17.9-6.1l1-0.3l1.8-0.6l0.7-0.3l1.5-0.5l3.2-1.1
													l19,2.5l1.1,0.2l1.9,0.3l1.1,0.1l13.6,1.8L326.2,169.5z"/>
											</g>
										</g>
									</g>
								</g>
								<path id="Path_21927_1_" class="st14" d="M309.1,175.8c-6.6,1.8-13.4,2.8-20.3,3c0.3-1.9,0.6-3.9,0.8-6
									c0.1-1,0.2-2.1,0.3-3.1c0.1-2.1,0.2-4.2,0.3-6.4c0-1,0-2.1,0-3.1c0-2.1,0-4.2-0.1-6.3c0-1-0.1-2.1-0.1-3.1
									c-0.1-2.1-0.2-4.2-0.4-6.3c-0.1-1-0.1-2.1-0.2-3.1c-0.2-2.1-0.4-4.2-0.6-6.3c-0.1-1-0.2-2.1-0.3-3.1
									c-0.2-2.1-0.5-4.2-0.8-6.3c-0.1-1-0.3-2.1-0.4-3.1c-0.3-2.1-0.6-4.2-0.9-6.3c-0.2-1-0.3-2.1-0.5-3.1c-0.3-2.1-0.7-4.2-1-6.3
									c-0.2-1-0.4-2.1-0.5-3.1c-0.4-2.1-0.8-4.2-1.2-6.3c-0.2-1-0.4-2.1-0.6-3.1c-0.4-2.1-0.8-4.2-1.3-6.3c-0.2-1-0.4-2.1-0.7-3.1
									c-0.5-2.2-0.9-4.3-1.4-6.3c-0.2-1.1-0.5-2.1-0.7-3.1c-0.5-2.2-1-4.3-1.5-6.3c-0.3-1.1-0.5-2.1-0.8-3.1
									c-0.5-2.1-1.1-4.2-1.6-6.4c-0.3-1.1-0.6-2.1-0.8-3.1c-0.6-2.4-1.3-4.8-1.9-7.2l1.5-0.5l3.2-1.1l19,2.5l1.1,0.2
									c0.3,1.8,0.7,3.6,1,5.4c0.2,1,0.4,2,0.5,3.1c0.4,2,0.7,4.1,1,6.1c0.2,1,0.3,2,0.5,3.1c0.3,2,0.7,4.1,1,6.1
									c0.2,1,0.3,2,0.5,3.1c0.3,2.1,0.6,4.1,0.9,6.1c0.1,1,0.3,2.1,0.4,3.1c0.3,2.1,0.5,4.1,0.8,6.1c0.1,1,0.3,2.1,0.4,3.1
									c0.3,2.1,0.5,4.1,0.7,6.2c0.1,1,0.2,2.1,0.3,3.1c0.2,2.1,0.5,4.1,0.7,6.2c0.1,1,0.2,2.1,0.3,3.1c0.2,2.1,0.4,4.1,0.6,6.2
									c0.1,1,0.2,2.1,0.3,3.1c0.2,2.1,0.4,4.2,0.5,6.2c0.1,1.1,0.2,2.1,0.2,3.1c0.2,2.1,0.3,4.2,0.4,6.2c0.1,1.1,0.1,2.1,0.2,3.1
									c0.1,2.1,0.3,4.2,0.4,6.2c0.1,1.1,0.1,2.1,0.2,3.1c0.1,2.2,0.2,4.3,0.3,6.2c0,1.1,0.1,2.1,0.1,3.2c0.1,2.3,0.1,4.3,0.2,6.3
									c0,1.1,0,2.2,0,3.2C309.2,172.4,309.1,174.3,309.1,175.8L309.1,175.8z"/>
								<g id="Group_537_1_" transform="translate(35.942 12.417)">
									<g id="Group_524_1_">
										<path id="Path_21928_1_" class="st17" d="M262.3,46.4c-5.5,0.7-11,1-16.5,1c-2.3,0-4.7,0-7.1-0.1
											c-0.3-1.1-0.6-2.1-0.8-3.1c8,0.4,16,0.2,23.9-0.7C261.9,44.4,262.1,45.4,262.3,46.4L262.3,46.4z"/>
									</g>
									<g id="Group_525_1_" transform="translate(3.708 14.153)">
										<path id="Path_21929_1_" class="st17" d="M260.1,41.5c-6.1,0.8-12.2,1.2-18.3,1.2c-1.5,0-3,0-4.5-0.1
											c-0.3-1.1-0.5-2.1-0.8-3.1c7.7,0.3,15.4-0.1,23.1-1C259.8,39.4,260,40.4,260.1,41.5L260.1,41.5z"/>
									</g>
									<g id="Group_526_1_" transform="translate(7.17 28.316)">
										<path id="Path_21930_1_" class="st17" d="M258.1,36.5c-6.6,1-13.3,1.4-19.9,1.4c-0.7,0-1.4,0-2.1,0
											c-0.2-1.1-0.5-2.1-0.7-3.1c7.4,0.2,14.9-0.2,22.3-1.3L258.1,36.5L258.1,36.5z"/>
									</g>
									<g id="Group_527_1_" transform="translate(10.398 42.482)">
										<path id="Path_21931_1_" class="st17" d="M256.2,31.5c-7,1.1-14.2,1.6-21.3,1.6c-0.2-1-0.4-2.1-0.7-3.1
											c7.2,0.1,14.4-0.4,21.5-1.5C255.9,29.5,256,30.5,256.2,31.5z"/>
									</g>
									<g id="Group_528_1_" transform="translate(13.386 56.675)">
										<path id="Path_21932_1_" class="st17" d="M254.4,26.6c-6.8,1.1-13.7,1.7-20.6,1.7c-0.2-1-0.4-2.1-0.6-3.1
											c7,0,13.9-0.6,20.8-1.7C254.1,24.5,254.2,25.6,254.4,26.6z"/>
									</g>
									<g id="Group_529_1_" transform="translate(16.113 70.886)">
										<path id="Path_21933_1_" class="st17" d="M252.7,21.6c-6.6,1.2-13.3,1.8-19.9,1.9c-0.2-1-0.4-2.1-0.5-3.1
											c6.8-0.1,13.5-0.7,20.1-1.9C252.5,19.6,252.6,20.6,252.7,21.6L252.7,21.6z"/>
									</g>
									<g id="Group_530_1_" transform="translate(18.566 85.126)">
										<path id="Path_21934_1_" class="st17" d="M251.2,16.6c-6.4,1.2-12.9,1.8-19.4,2c-0.2-1-0.3-2.1-0.5-3.1
											c6.6-0.1,13.1-0.8,19.6-2C251,14.6,251.1,15.6,251.2,16.6z"/>
									</g>
									<g id="Group_531_1_" transform="translate(20.715 99.389)">
										<path id="Path_21935_1_" class="st17" d="M249.9,11.7c-6.2,1.2-12.6,1.9-18.9,2.1c-0.1-1-0.3-2.1-0.4-3.1
											c6.4-0.2,12.8-0.9,19.1-2.1C249.8,9.6,249.9,10.6,249.9,11.7L249.9,11.7z"/>
									</g>
									<g id="Group_532_1_" transform="translate(22.519 113.682)">
										<path id="Path_21936_1_" class="st17" d="M248.9,6.7c-6.1,1.2-12.4,1.9-18.6,2.2c-0.1-1-0.2-2.1-0.3-3.1
											c6.3-0.3,12.5-1,18.7-2.2C248.8,4.6,248.8,5.6,248.9,6.7L248.9,6.7z"/>
									</g>
									<g id="Group_533_1_" transform="translate(23.913 128.012)">
										<path id="Path_21937_1_" class="st17" d="M248.2,1.7c-6.1,1.2-12.3,2-18.5,2.3c-0.1-1-0.1-2.1-0.2-3.1
											c6.2-0.3,12.4-1.1,18.5-2.3C248-0.4,248.1,0.6,248.2,1.7z"/>
									</g>
									<g id="Group_534_1_" transform="translate(24.825 142.387)">
										<path id="Path_21938_1_" class="st17" d="M247.8-3.4c-6.1,1.2-12.3,2-18.5,2.3c0-1-0.1-2.1-0.1-3.1
											c6.2-0.3,12.4-1.1,18.5-2.4C247.7-5.4,247.8-4.4,247.8-3.4L247.8-3.4z"/>
									</g>
									<g id="Group_535_1_" transform="translate(25.055 156.806)">
										<path id="Path_21939_1_" class="st17" d="M248-8.4c-6.2,1.3-12.5,2.1-18.9,2.4c0-1,0-2.1,0-3.1c6.3-0.3,12.6-1.2,18.7-2.5
											C247.9-10.5,247.9-9.4,248-8.4z"/>
									</g>
									<g id="Group_536_1_" transform="translate(24.213 171.29)">
										<path id="Path_21940_1_" class="st17" d="M249-13.5c-6.5,1.3-13,2.1-19.6,2.5c0.1-1,0.2-2.1,0.3-3.1
											c6.5-0.3,13-1.2,19.3-2.5C249-15.5,249-14.4,249-13.5z"/>
									</g>
								</g>
							</g>
							<g id="Group_557_1_" transform="translate(46.162)">
								<g id="Group_539_1_" transform="translate(69.717 25.979)">
									<path id="Path_21941_1_" class="st18" d="M221,75.2c0,0,4.8,3.2,3.1,11.8s-5.1,9.5-5.1,9.5S214,77.4,221,75.2z"/>
								</g>
								<g id="Group_540_1_" transform="translate(13.043 83.4)">
									<path id="Path_21942_1_" class="st8" d="M255.5,58l-0.6,10.9l-0.3,5c-6.3,4.6-16.5-1.7-16.5-1.7l-1-16.2
										c2.9-2,10.4-0.3,14.9,0.9C254.1,57.5,255.5,58,255.5,58L255.5,58z"/>
								</g>
								<g id="Group_541_1_" transform="translate(19.668 86.211)">
									<path id="Path_21943_1_" class="st9" d="M248.9,55.2l-0.6,10.9c-7.4-1.7-13.5-11.9-13.5-11.9l10.6-0.1
										C247.5,54.7,248.9,55.2,248.9,55.2z"/>
								</g>
								<g id="Group_542_1_">
									<path id="Path_21944_1_" class="st18" d="M289.7,105.5c0,0,11.7-5.5,8.3-15.1c-3.4-9.6-17.5-5.2-30.1-4.7
										c-20.3,0.8-26.7,11.4-26.2,22.4s0.4,25.8,5.4,31.3s8.4-2.3,11-9.2C260.7,123.3,276.6,102.2,289.7,105.5z"/>
								</g>
								<g id="Group_543_1_" transform="translate(5.802 17.595)">
									<path id="Path_21945_1_" class="st8" d="M285,97.3c0,0.4,0,0.8,0,1.1c-0.2,6.8-1.4,15.2-2.5,21.9
										c-1.2,7-7.9,11.8-14.9,10.6c-0.1,0-0.2,0-0.4-0.1c-8.6-1.7-19.2-4.4-24-7.5c-1.5-1-2.4-2-2.6-3c-0.5-3.1-0.7-6.3-0.8-9.5
										c-0.3-11.1,0.5-24.9,0.5-24.9c10.3-12.8,39.1-7.8,43.5,1.6C284.7,89.6,285,93.1,285,97.3L285,97.3z"/>
								</g>
								<g id="Group_544_1_" transform="translate(44.904 52.672)">
									<path id="Path_21946_1_" class="st18" d="M228.8,68.4c0,1.4-0.6,2.6-1.4,2.6s-1.4-1.2-1.4-2.6s0.6-2.6,1.4-2.6
										S228.8,67,228.8,68.4z"/>
								</g>
								<g id="Group_545_1_" transform="translate(67.509 52.672)">
									<path id="Path_21947_1_" class="st18" d="M220.9,68.4c0,1.4-0.6,2.6-1.4,2.6c-0.8,0-1.4-1.2-1.4-2.6s0.6-2.6,1.4-2.6
										C220.3,65.8,220.9,67,220.9,68.4z"/>
								</g>
								<g id="Group_546_1_" transform="translate(3.766 10.946)">
									<path id="Path_21948_1_" class="st18" d="M241.7,107.3c0,0,4.6-3,8.5,2.4h3c0,0-0.2-6.2,1.3-9.5c1.5-3.4,7.2-3.3,8.1-7.2
										c0,0,13.6,5.4,23.4,1.8s-19.5-19.9-33.6-12S239.5,96.7,241.7,107.3L241.7,107.3z"/>
								</g>
								<g id="Group_547_1_" transform="translate(37.541 45.23)">
									<path id="Path_21949_1_" class="st18" d="M228.5,72.3c0,0,1.4-2.8,4-3.5c1.7-0.5,3.5-0.4,5.1,0.5c0.4,0.2,0.6,0.7,0.4,1.1
										c-0.2,0.5-0.7,0.7-1.1,0.5c0,0,0,0-0.1,0C235.3,70.1,232.1,69.2,228.5,72.3L228.5,72.3z"/>
								</g>
								<g id="Group_548_1_" transform="translate(64.14 45.231)">
									<path id="Path_21950_1_" class="st18" d="M226.6,69.7c0,0.4,0,0.8,0,1.1c-1.9-1-4.2-1-6.2-0.1c-0.1,0.1-0.2,0.1-0.4,0.1
										c-0.5,0-0.9-0.4-0.9-0.9c0-0.3,0.2-0.6,0.5-0.8c1.6-0.8,3.4-1,5.1-0.5C225.4,68.9,226.1,69.2,226.6,69.7z"/>
								</g>
								<g id="Group_549_1_" transform="translate(5.931 67.866)">
									<path id="Path_21951_1_" class="st18" d="M243,73c-1.5-1-2.4-2-2.6-3c-0.5-3.1-0.7-6.3-0.8-9.5l7.6,5.2
										C247.2,65.7,247.3,71.1,243,73z"/>
								</g>
								<g id="Group_553_1_" transform="translate(2.993 50.667)">
									<g id="Group_550_1_">
										<path id="Path_21952_1_" class="st8" d="M250.9,69.9c0,0-4.6-5.6-8.5-2.4c-4.3,3.6-1,15.7,7.7,15.4L250.9,69.9z"/>
									</g>
									<g id="Group_551_1_" transform="translate(5.989 6.929)">
										<path id="Path_21953_1_" class="st9" d="M244.3,73.4c-0.4,0-0.7-0.3-0.8-0.7c-0.7-6.1-4.3-7.1-4.5-7.1
											c-0.4-0.1-0.7-0.5-0.6-0.9s0.5-0.7,0.9-0.6l0,0c0.2,0,4.8,1.2,5.7,8.4C245.1,73,244.9,73.3,244.3,73.4
											C244.4,73.4,244.4,73.4,244.3,73.4C244.4,73.4,244.4,73.4,244.3,73.4z"/>
									</g>
									<g id="Group_552_1_" transform="translate(6.318 11.308)">
										<path id="Path_21954_1_" class="st9" d="M239.2,65.1c-0.4,0-0.8-0.3-0.8-0.8c0-0.2,0.1-0.4,0.2-0.5
											c1.1-1.1,2.6-1.5,4.1-1.2c0.4,0.1,0.7,0.5,0.6,0.9c-0.1,0.4-0.5,0.7-0.9,0.6l0,0c-0.9-0.2-1.9,0-2.6,0.7
											C239.6,65,239.4,65.1,239.2,65.1L239.2,65.1z"/>
									</g>
								</g>
								<g id="Group_554_1_" transform="translate(43.734 71.331)">
									<path id="Path_21955_1_" class="st9" d="M237.1,65.1c-4,0.1-7.9-1.6-10.6-4.6c-0.3-0.3-0.2-0.8,0.1-1.1s0.8-0.2,1.1,0.1
										c5,5.7,12.8,3.7,12.9,3.7c0.4-0.1,0.8,0.1,0.9,0.5c0.1,0.4-0.1,0.8-0.5,0.9l0,0C239.7,65,238.4,65.2,237.1,65.1L237.1,65.1
										z"/>
								</g>
								<g id="Group_555_1_" transform="translate(45.942 80.03)">
									<path id="Path_21956_1_" class="st9" d="M231.7,60.1c-2.3,0.1-4.5-0.9-5.9-2.7c-0.3-0.3-0.2-0.8,0.2-1.1
										c0.3-0.3,0.8-0.2,1.1,0.2l0,0c0.1,0.1,2,2.6,6.1,1.9c0.4-0.1,0.8,0.2,0.9,0.6c0.1,0.4-0.2,0.8-0.6,0.9l0,0
										C232.7,60.1,232.2,60.1,231.7,60.1z"/>
								</g>
								<g id="Group_556_1_" transform="translate(57.6 54.667)">
									<path id="Path_21957_1_" class="st9" d="M223,74.8c-0.4,0-0.8-0.3-0.8-0.8c0-0.2,0.1-0.5,0.3-0.6l2-1.5l-1.8-0.5
										c-0.3-0.1-0.5-0.3-0.6-0.6l-0.8-4.8c-0.1-0.4,0.2-0.8,0.6-0.9c0.4-0.1,0.8,0.2,0.9,0.6l0.7,4.4l2.8,0.7
										c0.4,0.1,0.7,0.5,0.5,0.9c0,0.2-0.1,0.3-0.3,0.4l-3.3,2.5C223.4,74.8,223.2,74.8,223,74.8z"/>
								</g>
							</g>
							<g id="Group_558_1_" transform="translate(28.395 298.362)">
								<path id="Path_21958_1_" class="st8" d="M256.1-20.2c0,0,3.4,1.1,4.4,3.1c0,0,0,12.5-6.3,18c0,0-3.1-7.5-6.3-14.7
									L256.1-20.2z"/>
							</g>
							<path id="Path_21959_1_" class="st16" d="M271.5,161.1c0,0-12.6,39.3-13.7,59.6c0,0,0,37.8,18.5,63.8l8.2-6.3
								c0,0-10.3-37.6-10.3-52.3c0,0,10.5-27.3,12.2-38C286.3,187.9,279.3,161.1,271.5,161.1L271.5,161.1z"/>
						</g>
					</g>
				</g>
				<path id="Path_21995_1_" class="st3" d="M1644,874.7c0,2.9-8.9,5.3-19.9,5.3s-19.9-2.4-19.9-5.3c0-2.9,8.9-5.3,19.9-5.3
					S1644,871.8,1644,874.7z"/>
				<path id="Rectangle_2990_1_" d="M1621.9,600.5h3.9c1.8,0,3.2,1.5,3.2,3.2v269.1c0,1.8-1.5,3.2-3.2,3.2h-3.9
					c-1.8,0-3.2-1.5-3.2-3.2v-269C1618.6,602,1620.1,600.5,1621.9,600.5z"/>
				<path id="Rectangle_2989_1_" class="st19" d="M1633.9,565.6l6.4,3.1c1.6,0.8,2.3,2.7,1.5,4.3l-32.2,66c-0.8,1.6-2.7,2.3-4.3,1.5
					l-6.4-3.1c-1.6-0.8-2.3-2.7-1.5-4.3l32.2-66C1630.4,565.5,1632.3,564.8,1633.9,565.6z"/>
				<g id="Group_592_1_" transform="translate(1210 218)">
					<g id="Group_569_1_" transform="translate(324 309)">
						<g id="Group_567_1_">
							<g id="Group_565_1_">
								<path id="Path_21996_1_" class="st20" d="M132.7,120v24.2h22.9"/>
								<path id="Path_21997_1_" class="st20" d="M233.9,67.4V43h-29"/>
								<path id="Path_21998_1_" class="st20" d="M156.9,43h-24.2v22.9"/>
								<path id="Path_21999_1_" class="st20" d="M209.5,144.2h24.4v-29"/>
							</g>
							<g id="Group_566_1_" transform="translate(13.103 13.108)">
								<path id="Path_22000_1_" class="st20" d="M128.1,102.4v20.1h19"/>
								<path id="Path_22001_1_" class="st20" d="M212.3,58.7V38.4h-24.1"/>
								<path id="Path_22002_1_" class="st20" d="M148.2,38.4h-20.1v19"/>
								<path id="Path_22003_1_" class="st20" d="M192,122.5h20.3v-24"/>
							</g>
						</g>
						<g id="Group_568_1_" transform="translate(23.055 32.738)">
							<path id="Path_22004_1_" class="st14" d="M125.4,34.2c0,1.5,1.2,2.7,2.7,2.7c1.5,0,2.7-1.2,2.7-2.7s-1.2-2.7-2.7-2.7l0,0
								C126.6,31.5,125.4,32.7,125.4,34.2z"/>
							<path id="Path_22005_1_" class="st14" d="M187.7,35.9c0,1.5,1.2,2.7,2.7,2.7s2.7-1.2,2.7-2.7s-1.2-2.7-2.7-2.7l0,0
								C188.9,33.2,187.7,34.4,187.7,35.9z"/>
							<path id="Path_22006_1_" class="st14" d="M157.3,43.7c0,1.5,1.2,2.7,2.7,2.7s2.7-1.2,2.7-2.7S161.5,41,160,41l0,0
								C158.5,41,157.3,42.2,157.3,43.7z"/>
							<path id="Path_22007_1_" class="st14" d="M192.4,59.2c0,1.5,1.2,2.7,2.7,2.7s2.7-1.2,2.7-2.7s-1.2-2.7-2.7-2.7l0,0
								C193.6,56.6,192.4,57.8,192.4,59.2L192.4,59.2z"/>
							<path id="Path_22008_1_" class="st14" d="M155.5,95.2c0,1.5,1.2,2.7,2.7,2.7s2.7-1.2,2.7-2.7s-1.2-2.7-2.7-2.7
								S155.5,93.7,155.5,95.2L155.5,95.2z"/>
							<path id="Path_22009_1_" class="st14" d="M156.6,68.5c0,1.5,1.2,2.7,2.7,2.7s2.7-1.2,2.7-2.7s-1.2-2.7-2.7-2.7l0,0
								C157.8,65.8,156.6,67,156.6,68.5L156.6,68.5z"/>
							<path id="Path_22010_1_" class="st14" d="M124.6,60.5c0,1.5,1.2,2.7,2.7,2.7c1.5,0,2.7-1.2,2.7-2.7s-1.2-2.7-2.7-2.7l0,0
								C125.8,57.9,124.6,59.1,124.6,60.5z"/>
							<path id="Path_22011_1_" class="st14" d="M181.3,81.8c0,1.5,1.2,2.7,2.7,2.7s2.7-1.2,2.7-2.7s-1.2-2.7-2.7-2.7l0,0
								C182.5,79.2,181.3,80.4,181.3,81.8z"/>
							<path id="Path_22012_1_" class="st14" d="M134.8,83.4c0,1.5,1.2,2.7,2.7,2.7s2.7-1.2,2.7-2.7s-1.2-2.7-2.7-2.7l0,0
								C135.9,80.7,134.8,81.9,134.8,83.4z"/>
							<path id="Path_22013_1_" class="st21" d="M183.9,81.8l-25.7,13.4l-20.8-11.8l-10-22.5l0.6-26.7h62.1l4.9,25.1L183.9,81.8z"/>
							<path id="Path_22014_1_" class="st21" d="M183.9,81.8l-24.2-12.1l-22.4,13.7"/>
							<path id="Path_22015_1_" class="st21" d="M159.8,66.8l0.2-23.1l-31.9-9.5"/>
							<path id="Path_22016_1_" class="st21" d="M127.9,59.7l32-16.7l33.9,15.7l-34.6,9.8L128,60.9"/>
							<path id="Path_22017_1_" class="st21" d="M183,80.8l-23.1-37.1l31.3-7.4"/>
							<path id="Line_6_1_" class="st21" d="M137.6,82.2l22.3-38.5"/>
							<path id="Line_7_1_" class="st21" d="M158.2,95.2l1.1-26.7"/>
						</g>
					</g>
					<g id="Group_591_1_" transform="translate(137.294 123.273)">
						<g id="Group_572_1_" transform="translate(0 64.005)">
							<g id="Group_571_1_" transform="translate(5.594 5.594)">
								<g id="Group_570_1_">
									<path id="Line_8_1_" class="st22" d="M264.8,83.6h-1.7"/>
									<path id="Line_9_1_" class="st22" d="M258.4,83.6h-47.1"/>
									<path id="Path_22018_1_" class="st22" d="M208.9,83.6h-1.7l-1.1,1.3"/>
									<path id="Line_10_1_" class="st22" d="M205,86l-5.2,6.5"/>
									<path id="Line_11_1_" class="st22" d="M197.2,96.1l-1.1,1.3"/>
								</g>
							</g>
							<path id="Path_22019_1_" class="st14" d="M274.7,89.2c0,2-1.6,3.6-3.6,3.6s-3.6-1.6-3.6-3.6s1.6-3.6,3.6-3.6l0,0
								C273,85.6,274.7,87.2,274.7,89.2L274.7,89.2z"/>
							<path id="Path_22020_1_" class="st14" d="M205.3,103c0,2-1.6,3.6-3.6,3.6s-3.6-1.6-3.6-3.6s1.6-3.6,3.6-3.6
								S205.3,101,205.3,103L205.3,103z"/>
						</g>
						<g id="Group_590_1_" transform="translate(130.433 2)">
							<path id="Rectangle_2991_1_" class="st14" d="M152.4,107.3h128.7v86.9H152.4V107.3z"/>
							<g id="Group_574_1_" transform="translate(38.125 75.529)">
								<path id="Path_22021_1_" class="st23" d="M153,94.8c0,0.3-10.3-9.4-10.3-9.4c2.6-2.9,6.4-4.6,10.3-4.5V94.8z"/>
								<path id="Path_22022_1_" class="st12" d="M166.9,94.8H153v-14C160.7,80.8,166.9,87.1,166.9,94.8z"/>
								<path id="Path_22023_1_" class="st16" d="M139.1,94.8H153v13.9C145.3,108.7,139.1,102.5,139.1,94.8z"/>
								<path id="Path_22024_1_" class="st19" d="M153,94.8h-13.9c0-3.5,1.3-6.8,3.6-9.4L153,94.8z"/>
								<g id="Group_573_1_" transform="translate(21.421 21.435)">
									<path id="Path_22025_1_" class="st24" d="M131.6,73.3c0-0.3,10.3,9.4,10.3,9.4c-2.6,2.9-6.4,4.6-10.3,4.5V73.3z"/>
									<path id="Path_22026_1_" class="st25" d="M131.6,73.3h13.9c0,3.5-1.3,6.8-3.6,9.4L131.6,73.3z"/>
								</g>
							</g>
							<g id="Group_575_1_" transform="translate(17.242 22.888)">
								<path id="Rectangle_2992_1_" class="st19" d="M146.4,106.7h55.3v2.3h-55.3V106.7z"/>
								<path id="Rectangle_2993_1_" class="st19" d="M146.4,99.3h55.3v2.3h-55.3V99.3z"/>
								<path id="Rectangle_2994_1_" class="st19" d="M146.4,114.2h55.3v2.3h-55.3V114.2z"/>
								<path id="Rectangle_2995_1_" class="st19" d="M146.4,121.6h55.3v2.3h-55.3V121.6z"/>
							</g>
							<g id="Group_625_1_" transform="translate(39.326 -41.954)">
								<g id="Group_595_1_" transform="translate(102.144 135.352)">
									<g id="Group_593_1_">
										<path id="Path_22027_1_" class="st8" d="M114.5,74.6l-0.2,3.8l-0.3,4.8c0,0-0.9,1.8-5.2,1.8s-5.2-1.2-5.2-1.2l-0.2-2.1
											l-0.6-7L114.5,74.6z"/>
									</g>
									<g id="Group_594_1_">
										<path id="Path_22028_1_" class="st9" d="M114.5,74.6l-0.2,3.8c-1.8,1.3-6,4-10.8,3.2l-0.6-7H114.5z"/>
									</g>
								</g>
								<g id="Group_603_1_" transform="translate(79.947 105.848)">
									<g id="Group_597_1_">
										<g id="Group_596_1_">
											<path id="Path_22029_1_" class="st26" d="M117.8,86.7c0,0-3.3-3.2-5.9-1.1c-3.1,2.5,0.1,11.4,5.6,10.4L117.8,86.7z"/>
										</g>
									</g>
									<g id="Group_602_1_" transform="translate(1.907 3.372)">
										<g id="Group_599_1_">
											<g id="Group_598_1_">
												<path id="Path_22030_1_" class="st9" d="M113.9,90.5c-0.3,0-0.5-0.2-0.5-0.5c-0.4-4.4-2.9-5.1-3-5.2
													c-0.3-0.1-0.5-0.4-0.4-0.7c0.1-0.3,0.4-0.5,0.7-0.4c0.1,0,3.4,0.9,3.8,6.1C114.5,90.2,114.3,90.4,113.9,90.5
													C114,90.5,114,90.5,113.9,90.5C114,90.5,114,90.5,113.9,90.5z"/>
											</g>
										</g>
										<g id="Group_601_1_" transform="translate(.551 4.225)">
											<g id="Group_600_1_">
												<path id="Path_22031_1_" class="st9" d="M110.3,84c-0.3,0-0.5-0.3-0.5-0.6c0-0.1,0.1-0.3,0.1-0.4c0.8-0.7,1.9-1,2.9-0.7
													c0.3,0.1,0.4,0.4,0.3,0.7c-0.1,0.3-0.3,0.4-0.6,0.4c-0.7-0.2-1.4,0-1.9,0.4C110.6,84,110.5,84,110.3,84z"/>
											</g>
										</g>
									</g>
								</g>
								<g id="Group_611_1_" transform="translate(129.476 105.848)">
									<g id="Group_605_1_">
										<g id="Group_604_1_">
											<path id="Path_22032_1_" class="st26" d="M93.3,86.7c0,0,3.3-3.2,5.9-1.1c3.1,2.5-0.1,11.4-5.6,10.4L93.3,86.7z"/>
										</g>
									</g>
									<g id="Group_610_1_" transform="translate(2.082 3.372)">
										<g id="Group_607_1_">
											<g id="Group_606_1_">
												<path id="Path_22033_1_" class="st9" d="M93.2,90.5c0.3,0,0.5-0.2,0.5-0.5c0.4-4.4,2.9-5.1,3-5.2
													c0.3-0.1,0.5-0.4,0.4-0.7c-0.1-0.3-0.4-0.5-0.7-0.4c-0.1,0-3.4,0.9-3.8,6.1C92.6,90.2,92.8,90.4,93.2,90.5
													C93.1,90.5,93.1,90.5,93.2,90.5z"/>
											</g>
										</g>
										<g id="Group_609_1_" transform="translate(1.031 4.225)">
											<g id="Group_608_1_">
												<path id="Path_22034_1_" class="st9" d="M95.2,84c0.3,0,0.5-0.3,0.5-0.6c0-0.1-0.1-0.3-0.1-0.4c-0.8-0.7-1.9-1-2.9-0.7
													c-0.3,0.1-0.5,0.4-0.4,0.7c0.1,0.3,0.4,0.4,0.6,0.4c0.7-0.2,1.4,0,1.9,0.4C94.9,84,95,84,95.2,84z"/>
											</g>
										</g>
									</g>
								</g>
								<path id="Path_22035_1_" class="st8" d="M210.4,213.7c-11.3,0-14.8-13.5-15.9-23.3c-0.9-8.5,5.3-16.2,13.8-17.1
									c0.5-0.1,0.9-0.1,1.4-0.1h0.8c8.6,0.1,15.5,7.2,15.3,15.8c0,0.4,0,0.7-0.1,1.1C225,200,221.8,213.7,210.4,213.7z"/>
								<path id="Path_22036_1_" class="st18" d="M224.8,165.9c5.8,3.9,0.5,11.6,0.5,11.6s5.7,5.6-0.2,18.8l-1.1-0.2
									c0.7-4.2,0.3-9.4,0-10.2c-0.8-2.4-5-3.7-4.8-6.3c0,0-13,4.1-20,0.1c0,0-0.6,3.3-2.5,5.5c-1.6,1.8-0.7,7.9-0.5,10.6l-1.1,0.1
									c-0.6-2.7-2.2-7.6-2.4-9c-0.1-0.9-0.5-4.5-0.7-7.1c-0.2-2.3,0.3-4.5,1.3-6.5c0.6-1.2,1.4-2.2,2.4-3
									C199.7,167.3,219.6,162.3,224.8,165.9L224.8,165.9z"/>
								<g id="Group_613_1_" transform="translate(98.799 105.472)">
									<g id="Group_612_1_">
										<path id="Path_22037_1_" class="st18" d="M106.3,87.1c0,1.1-0.5,2.1-1.1,2.1s-1.1-0.9-1.1-2.1c0-1.1,0.5-2.1,1.1-2.1
											S106.3,86,106.3,87.1z"/>
									</g>
								</g>
								<g id="Group_615_1_" transform="translate(93.448 97.247)">
									<g id="Group_614_1_">
										<path id="Path_22038_1_" class="st18" d="M105.9,90.9c0,0,1.1-2.2,3.2-2.8c1.3-0.4,2.8-0.3,4,0.4c0.3,0.2,0.4,0.5,0.3,0.8
											c-0.1,0.4-0.5,0.5-0.9,0.4c0,0,0,0-0.1,0C111.3,89.2,108.7,88.5,105.9,90.9z"/>
									</g>
								</g>
								<g id="Group_617_1_" transform="translate(119.281 105.472)">
									<g id="Group_616_1_">
										<path id="Path_22039_1_" class="st18" d="M96.9,87.1c0,1.1,0.5,2.1,1.1,2.1s1.1-0.9,1.1-2.1c0-1.1-0.5-2.1-1.1-2.1
											S96.9,86,96.9,87.1z"/>
									</g>
								</g>
								<g id="Group_619_1_" transform="translate(116.528 97.247)">
									<g id="Group_618_1_">
										<path id="Path_22040_1_" class="st18" d="M105.4,90.9c0,0-1.1-2.2-3.2-2.8c-1.3-0.4-2.8-0.3-4,0.4
											c-0.3,0.2-0.4,0.5-0.3,0.8c0.1,0.4,0.5,0.5,0.9,0.4c0,0,0,0,0.1,0C100,89.2,102.6,88.5,105.4,90.9z"/>
									</g>
								</g>
								<g id="Group_621_1_" transform="translate(109.641 107.552)">
									<g id="Group_620_1_">
										<path id="Path_22041_1_" class="st9" d="M100.8,92c-0.3,0-0.6-0.3-0.5-0.7c0-0.2,0.1-0.4,0.3-0.5l1.7-1.1l-1.3-0.5
											c-0.2-0.1-0.4-0.3-0.4-0.5l-0.2-3.8c0-0.3,0.2-0.6,0.6-0.6c0.3,0,0.6,0.2,0.6,0.6l0.2,3.5l2.1,0.8
											c0.3,0.1,0.5,0.5,0.4,0.8c0,0.1-0.1,0.2-0.2,0.3l-2.8,1.7C101.1,92,100.9,92,100.8,92z"/>
									</g>
								</g>
								<g id="Group_623_1_" transform="translate(101.72 124.364)">
									<g id="Group_622_1_">
										<path id="Path_22042_1_" class="st9" d="M111.3,81c-2.7,0.6-5.6,0.1-7.9-1.4c-0.3-0.2-0.4-0.5-0.2-0.8
											c0.2-0.3,0.5-0.4,0.8-0.2l0,0c5,3.3,10.4,0.1,10.4,0c0.3-0.2,0.6-0.1,0.8,0.2s0.1,0.6-0.2,0.8
											C113.8,80.2,112.6,80.7,111.3,81z"/>
									</g>
								</g>
								<g id="Group_624_1_" transform="translate(105.862 129.716)">
									<path id="Path_22043_1_" class="st9" d="M105.1,78.2c-1.2,0-2.3-0.3-3.3-0.9c-0.2-0.1-0.3-0.4-0.2-0.6
										c0.1-0.2,0.4-0.3,0.6-0.2c0,0,0,0,0.1,0c1.7,1,3.9,1,5.6,0c0.2-0.1,0.5,0,0.6,0.2s0,0.4-0.1,0.6
										C107.3,77.9,106.2,78.2,105.1,78.2z"/>
								</g>
							</g>
						</g>
					</g>
				</g>
			</g>
		</g>
	</g>
</g>
<g id="Layer_2_2_">
</g>
</svg>
